<?xml version="1.0" standalone="no"?>
<!DOCTYPE svg PUBLIC "-//W3C//DTD SVG 20010904//EN"
 "http://www.w3.org/TR/2001/REC-SVG-20010904/DTD/svg10.dtd">
<svg version="1.0" xmlns="http://www.w3.org/2000/svg"
 width="700.000000pt" height="700.000000pt" viewBox="0 0 700.000000 700.000000"
 preserveAspectRatio="xMidYMid meet">
<metadata>
Created by potrace 1.11, written by Peter Selinger 2001-2013
</metadata>
<g transform="translate(0.000000,700.000000) scale(0.100000,-0.100000)"
fill="#000000" stroke="none">
<path d="M2249 6406 c-1 -1 -2 -850 -3 -1889 -1 -1670 1 -1888 14 -1891 8 -2
197 -3 420 -2 l405 1 2 700 c1 385 2 708 2 717 1 16 46 17 697 18 383 0 699 2
704 5 4 3 7 188 6 412 l-1 408 -702 0 -703 0 -1 40 c0 22 -1 176 -2 342 -2
261 0 302 13 305 8 2 380 3 825 3 446 -1 815 0 820 2 6 2 10 145 9 406 -1 221
-2 407 -3 413 -1 7 -367 10 -1251 10 -687 0 -1250 0 -1251 0z"/>
<path d="M44 2216 c-2 -6 -3 -155 -2 -331 l3 -320 1727 0 1726 0 0 331 -1 331
-1724 0 c-1272 0 -1726 -3 -1729 -11z"/>
<path d="M6365 2114 c-203 -62 -408 -126 -455 -140 -47 -14 -101 -31 -120 -37
-19 -6 -39 -12 -45 -13 -5 -1 -48 -14 -95 -29 -164 -51 -308 -95 -680 -209
-206 -63 -415 -127 -465 -142 -49 -15 -94 -29 -100 -30 -5 -1 -30 -9 -55 -17
-25 -8 -241 -75 -481 -148 l-437 -133 9 -26 c4 -14 31 -99 59 -190 87 -277
120 -384 124 -396 4 -10 83 12 646 186 454 140 762 234 800 245 25 7 135 41
245 75 110 34 220 68 245 75 25 7 99 30 165 50 66 20 148 46 183 56 34 10 92
28 130 40 37 11 81 24 97 29 17 5 127 39 245 75 240 75 287 89 443 136 105 32
108 33 102 58 -10 43 -185 601 -188 600 -1 0 -168 -52 -372 -115z"/>
</g>
</svg>
